<?xml version="1.0" encoding="UTF-8" standalone="no"?>
<!DOCTYPE svg PUBLIC "-//W3C//DTD SVG 1.1//EN" "http://www.w3.org/Graphics/SVG/1.1/DTD/svg11.dtd">
<svg width="100%" height="100%" viewBox="0 0 32 32" version="1.1" xmlns="http://www.w3.org/2000/svg" xmlns:xlink="http://www.w3.org/1999/xlink" xml:space="preserve" xmlns:serif="http://www.serif.com/" style="fill-rule:evenodd;clip-rule:evenodd;stroke-linecap:round;stroke-linejoin:round;stroke-miterlimit:1.5;">
    <g transform="matrix(0.329166,0,0,0.329166,-3.81948,-6.14538)">
        <path d="M77.302,34.938L77.302,81.332C77.302,88.877 71.176,95.002 63.632,95.002L35.327,95.002C27.782,95.002 21.657,88.877 21.657,81.332L21.657,34.938C21.657,27.394 27.782,21.268 35.327,21.268L63.632,21.268C71.176,21.268 77.302,27.394 77.302,34.938Z" style="fill:white;stroke:black;stroke-width:2.86px;"/>
    </g>
    <g id="Layer1" transform="matrix(1,0,0,1,-53.6781,-46.6068)">
        <g transform="matrix(0.329166,0,0,0.329166,56.5514,46.8427)">
            <path d="M77.302,35.18L77.302,81.091C77.302,88.769 71.068,95.002 63.391,95.002L35.568,95.002C27.89,95.002 21.657,88.769 21.657,81.091L21.657,35.18C21.657,27.502 27.89,21.268 35.568,21.268L63.391,21.268C71.068,21.268 77.302,27.502 77.302,35.18Z" style="fill:white;stroke:black;stroke-width:2.86px;"/>
        </g>
        <g transform="matrix(0.261476,0.0349169,0.0349169,0.239876,49.7573,45.959)">
            <path d="M51.253,108.994L106.771,33.708" style="fill:none;stroke:rgb(237,28,36);stroke-width:6.04px;"/>
        </g>
        <g transform="matrix(0.113782,-0.237997,0.238964,0.0406905,46.8681,81.7345)">
            <path d="M51.253,108.994L106.771,33.708" style="fill:none;stroke:rgb(237,28,36);stroke-width:6.04px;"/>
        </g>
    </g>
    <g id="ON" transform="matrix(0.363685,0,0,0.363685,-3.41324,-2.509)">
        <g id="Layer2">
            <g id="ON1" serif:id="ON">
                <g transform="matrix(1.0823,0,0,1.0823,0.912398,-0.682462)">
                    <path d="M65.451,16.254L65.451,32.404C65.451,36.861 61.832,40.48 57.376,40.48L18.681,40.48C14.224,40.48 10.606,36.861 10.606,32.404L10.606,16.254C10.606,11.797 14.224,8.178 18.681,8.178L57.376,8.178C61.832,8.178 65.451,11.797 65.451,16.254Z" style="fill:rgb(80,184,72);stroke:black;stroke-width:1.85px;"/>
                </g>
                <g transform="matrix(1.0823,0,0,1.0823,-8.46025,11.3027)">
                    <g transform="matrix(30,0,0,30,69.7375,23.9925)">
                    </g>
                    <text x="24.738px" y="23.992px" style="font-family:'Arial-BoldMT', 'Arial', sans-serif;font-weight:700;font-size:30px;fill:white;">ON</text>
                </g>
            </g>
        </g>
    </g>
</svg>
